<svg xmlns="http://www.w3.org/2000/svg" viewBox="0 0 640 640">
  <defs>
    <radialGradient id="roseSoft" cx="50%" cy="50%" r="60%">
      <stop offset="0%" stop-color="#f9e7e7" />
      <stop offset="60%" stop-color="#f4cfd1" />
      <stop offset="100%" stop-color="#eeb7bb" stop-opacity="0.8" />
    </radialGradient>
    <radialGradient id="peonyGlow" cx="50%" cy="50%" r="58%">
      <stop offset="0%" stop-color="#fdeee2" />
      <stop offset="55%" stop-color="#f6d0b7" />
      <stop offset="100%" stop-color="#efb095" stop-opacity="0.8" />
    </radialGradient>
    <radialGradient id="lilyLight" cx="50%" cy="50%" r="55%">
      <stop offset="0%" stop-color="#fbf6ed" />
      <stop offset="50%" stop-color="#f4ead9" />
      <stop offset="100%" stop-color="#ecddc6" stop-opacity="0.78" />
    </radialGradient>
    <radialGradient id="greenery" cx="50%" cy="50%" r="60%">
      <stop offset="0%" stop-color="#e7f1e6" />
      <stop offset="55%" stop-color="#c7dfc7" />
      <stop offset="100%" stop-color="#a9c9ac" stop-opacity="0.75" />
    </radialGradient>
    <linearGradient id="stemShade" x1="0%" y1="0%" x2="100%" y2="100%">
      <stop offset="0%" stop-color="#c7a78d" stop-opacity="0.65" />
      <stop offset="100%" stop-color="#b59274" stop-opacity="0.45" />
    </linearGradient>
    <pattern id="weddingFlorals" patternUnits="userSpaceOnUse" width="320" height="320" patternTransform="rotate(2)">
      <rect width="320" height="320" fill="transparent" />
      <g opacity="0.5">
        <path d="M36 66c18-18 40-24 66-6" fill="none" stroke="url(#stemShade)" stroke-width="1.6" stroke-linecap="round" />
        <path d="M54 90c-6 26 2 48 28 70" fill="none" stroke="url(#stemShade)" stroke-width="1.4" stroke-linecap="round" />
        <path d="M114 56c20-18 42-16 64 8" fill="none" stroke="url(#stemShade)" stroke-width="1.5" stroke-linecap="round" />
        <path d="M144 90c-12 24-6 48 20 72" fill="none" stroke="url(#stemShade)" stroke-width="1.3" stroke-linecap="round" />
        <path d="M188 78c22-16 44-14 64 10" fill="none" stroke="url(#stemShade)" stroke-width="1.5" stroke-linecap="round" />
        <path d="M212 112c-14 24-8 44 18 64" fill="none" stroke="url(#stemShade)" stroke-width="1.3" stroke-linecap="round" />
        <path d="M256 94c24-16 44-12 62 16" fill="none" stroke="url(#stemShade)" stroke-width="1.4" stroke-linecap="round" />
        <path d="M278 134c-14 22-10 42 14 60" fill="none" stroke="url(#stemShade)" stroke-width="1.2" stroke-linecap="round" />
        <path d="M40 186c20-16 40-16 58 6" fill="none" stroke="url(#stemShade)" stroke-width="1.4" stroke-linecap="round" />
        <path d="M68 212c-14 22-10 42 12 62" fill="none" stroke="url(#stemShade)" stroke-width="1.2" stroke-linecap="round" />
        <path d="M112 198c18-14 36-12 52 12" fill="none" stroke="url(#stemShade)" stroke-width="1.2" stroke-linecap="round" />
        <path d="M138 236c-12 22-6 42 16 62" fill="none" stroke="url(#stemShade)" stroke-width="1.1" stroke-linecap="round" />
        <path d="M186 212c22-14 42-10 58 16" fill="none" stroke="url(#stemShade)" stroke-width="1.3" stroke-linecap="round" />
        <path d="M214 246c-12 22-6 40 14 56" fill="none" stroke="url(#stemShade)" stroke-width="1.1" stroke-linecap="round" />
        <path d="M248 224c20-12 36-8 50 14" fill="none" stroke="url(#stemShade)" stroke-width="1.2" stroke-linecap="round" />
        <path d="M274 258c-8 20-4 36 16 52" fill="none" stroke="url(#stemShade)" stroke-width="1.1" stroke-linecap="round" />
      </g>
      <g opacity="0.6">
        <ellipse cx="64" cy="80" rx="28" ry="24" fill="url(#roseSoft)" transform="rotate(-8 64 80)" />
        <ellipse cx="126" cy="118" rx="24" ry="20" fill="url(#peonyGlow)" transform="rotate(12 126 118)" />
        <ellipse cx="188" cy="96" rx="30" ry="26" fill="url(#lilyLight)" transform="rotate(-16 188 96)" />
        <ellipse cx="244" cy="134" rx="26" ry="22" fill="url(#roseSoft)" transform="rotate(18 244 134)" />
        <ellipse cx="292" cy="104" rx="24" ry="20" fill="url(#peonyGlow)" transform="rotate(-10 292 104)" />
        <ellipse cx="92" cy="194" rx="30" ry="26" fill="url(#peonyGlow)" transform="rotate(-6 92 194)" />
        <ellipse cx="150" cy="230" rx="26" ry="22" fill="url(#roseSoft)" transform="rotate(10 150 230)" />
        <ellipse cx="212" cy="206" rx="32" ry="28" fill="url(#lilyLight)" transform="rotate(-14 212 206)" />
        <ellipse cx="266" cy="242" rx="24" ry="20" fill="url(#roseSoft)" transform="rotate(16 266 242)" />
        <ellipse cx="308" cy="208" rx="26" ry="22" fill="url(#peonyGlow)" transform="rotate(-12 308 208)" />
      </g>
      <g opacity="0.35">
        <ellipse cx="94" cy="56" rx="18" ry="14" fill="url(#greenery)" transform="rotate(22 94 56)" />
        <ellipse cx="132" cy="70" rx="14" ry="12" fill="url(#greenery)" transform="rotate(-18 132 70)" />
        <ellipse cx="174" cy="64" rx="18" ry="14" fill="url(#greenery)" transform="rotate(14 174 64)" />
        <ellipse cx="210" cy="74" rx="16" ry="12" fill="url(#greenery)" transform="rotate(-12 210 74)" />
        <ellipse cx="60" cy="158" rx="16" ry="12" fill="url(#greenery)" transform="rotate(-20 60 158)" />
        <ellipse cx="102" cy="156" rx="18" ry="12" fill="url(#greenery)" transform="rotate(18 102 156)" />
        <ellipse cx="146" cy="170" rx="16" ry="12" fill="url(#greenery)" transform="rotate(-16 146 170)" />
        <ellipse cx="188" cy="162" rx="20" ry="14" fill="url(#greenery)" transform="rotate(18 188 162)" />
        <ellipse cx="230" cy="174" rx="16" ry="12" fill="url(#greenery)" transform="rotate(-20 230 174)" />
        <ellipse cx="276" cy="168" rx="18" ry="14" fill="url(#greenery)" transform="rotate(16 276 168)" />
        <ellipse cx="72" cy="244" rx="18" ry="12" fill="url(#greenery)" transform="rotate(12 72 244)" />
        <ellipse cx="118" cy="254" rx="16" ry="12" fill="url(#greenery)" transform="rotate(-18 118 254)" />
        <ellipse cx="188" cy="270" rx="20" ry="14" fill="url(#greenery)" transform="rotate(16 188 270)" />
        <ellipse cx="236" cy="262" rx="18" ry="12" fill="url(#greenery)" transform="rotate(-12 236 262)" />
        <ellipse cx="280" cy="282" rx="16" ry="12" fill="url(#greenery)" transform="rotate(20 280 282)" />
      </g>
      <g opacity="0.28" fill="#ecd8c6">
        <circle cx="54" cy="62" r="6" />
        <circle cx="108" cy="108" r="5" />
        <circle cx="148" cy="90" r="6" />
        <circle cx="202" cy="110" r="5" />
        <circle cx="256" cy="126" r="6" />
        <circle cx="300" cy="90" r="5" />
        <circle cx="68" cy="206" r="5" />
        <circle cx="118" cy="220" r="6" />
        <circle cx="178" cy="208" r="5" />
        <circle cx="234" cy="228" r="6" />
        <circle cx="288" cy="236" r="5" />
        <circle cx="92" cy="268" r="5" />
        <circle cx="146" cy="280" r="6" />
  <circle cx="212" cy="290" r="5" />
        <circle cx="260" cy="302" r="6" />
      </g>
    </pattern>
  </defs>
  <rect width="640" height="640" fill="url(#weddingFlorals)" />
</svg>
